<mxfile host="app.diagrams.net" modified="2024-07-01T23:34:10.707Z" agent="Mozilla/5.0 (Windows NT 10.0; Win64; x64) AppleWebKit/537.36 (KHTML, like Gecko) Chrome/126.0.0.0 Safari/537.36" etag="tM7HJkFQkoyU9VusYhrC" version="24.4.13" type="github">
  <diagram id="6a731a19-8d31-9384-78a2-239565b7b9f0" name="Page-1">
    <mxGraphModel dx="3500" dy="2057" grid="1" gridSize="10" guides="1" tooltips="1" connect="1" arrows="1" fold="1" page="1" pageScale="1" pageWidth="1169" pageHeight="827" background="none" math="0" shadow="0">
      <root>
        <mxCell id="0" />
        <mxCell id="1" parent="0" />
        <mxCell id="1350" value="Geometry Dash Breeze" style="ellipse;whiteSpace=wrap;html=1;shadow=0;fontFamily=Helvetica;fontSize=20;align=center;strokeWidth=3;fillColor=#e6d0de;strokeColor=#996185;gradientColor=#d5739d;" parent="1" vertex="1">
          <mxGeometry x="523.5" y="271.5" width="120" height="120" as="geometry" />
        </mxCell>
        <mxCell id="1351" value="Geometry Lite" style="ellipse;whiteSpace=wrap;html=1;shadow=0;fontFamily=Helvetica;fontSize=20;align=center;strokeWidth=10;fillColor=#FFFFFF;strokeColor=#2F5B7C;gradientColor=#FFFFFF;" parent="1" vertex="1">
          <mxGeometry x="1070" y="206.5" width="196.5" height="190" as="geometry" />
        </mxCell>
        <mxCell id="1352" value="To Be Added!" style="ellipse;whiteSpace=wrap;html=1;shadow=0;fontFamily=Helvetica;fontSize=20;fontColor=#FFFFFF;align=center;strokeWidth=3;fillColor=#E85642;strokeColor=none;" parent="1" vertex="1">
          <mxGeometry x="1701" y="356.5" width="120" height="120" as="geometry" />
        </mxCell>
        <mxCell id="1353" value="To Be Added!" style="ellipse;whiteSpace=wrap;html=1;shadow=0;fontFamily=Helvetica;fontSize=20;fontColor=#FFFFFF;align=center;strokeWidth=3;fillColor=#1699D3;strokeColor=none;" parent="1" vertex="1">
          <mxGeometry x="1936" y="806.5" width="120" height="120" as="geometry" />
        </mxCell>
        <mxCell id="1354" value="Seasonal" style="ellipse;whiteSpace=wrap;html=1;shadow=0;fontFamily=Helvetica;fontSize=20;align=center;strokeWidth=3;fillColor=#e6d0de;strokeColor=#996185;gradientColor=#d5739d;" parent="1" vertex="1">
          <mxGeometry x="1711" y="1171.5" width="120" height="120" as="geometry" />
        </mxCell>
        <mxCell id="1355" value="Geometry World" style="ellipse;whiteSpace=wrap;html=1;shadow=0;fontFamily=Helvetica;fontSize=20;align=center;strokeWidth=3;fillColor=#d5e8d4;strokeColor=#82b366;gradientColor=#97d077;" parent="1" vertex="1">
          <mxGeometry x="1163.5" y="1309" width="120" height="120" as="geometry" />
        </mxCell>
        <mxCell id="1356" value="Geometry SubZero" style="ellipse;whiteSpace=wrap;html=1;shadow=0;fontFamily=Helvetica;fontSize=20;align=center;strokeWidth=3;fillColor=#dae8fc;strokeColor=#6c8ebf;gradientColor=#7ea6e0;" parent="1" vertex="1">
          <mxGeometry x="558.5" y="1171.5" width="120" height="120" as="geometry" />
        </mxCell>
        <mxCell id="1359" style="endArrow=none;strokeWidth=6;strokeColor=#996185;html=1;fillColor=#e6d0de;gradientColor=#d5739d;" parent="1" source="1515" target="1350" edge="1">
          <mxGeometry relative="1" as="geometry" />
        </mxCell>
        <mxCell id="1360" style="endArrow=none;strokeWidth=6;strokeColor=#d6b656;html=1;fillColor=#fff2cc;gradientColor=#ffd966;" parent="1" source="1515" target="1351" edge="1">
          <mxGeometry relative="1" as="geometry" />
        </mxCell>
        <mxCell id="1361" style="endArrow=none;strokeWidth=6;strokeColor=#E85642;html=1;" parent="1" source="1515" target="1352" edge="1">
          <mxGeometry relative="1" as="geometry" />
        </mxCell>
        <mxCell id="1362" style="endArrow=none;strokeWidth=6;strokeColor=#1699D3;html=1;" parent="1" source="1515" target="1353" edge="1">
          <mxGeometry relative="1" as="geometry" />
        </mxCell>
        <mxCell id="1363" style="endArrow=none;strokeWidth=6;strokeColor=#d79b00;html=1;fillColor=#ffcd28;gradientColor=#ffa500;" parent="1" source="1515" target="1516" edge="1">
          <mxGeometry relative="1" as="geometry" />
        </mxCell>
        <mxCell id="1364" style="endArrow=none;strokeWidth=6;strokeColor=#996185;html=1;fillColor=#e6d0de;gradientColor=#d5739d;" parent="1" source="1515" target="1354" edge="1">
          <mxGeometry relative="1" as="geometry" />
        </mxCell>
        <mxCell id="1365" value="" style="edgeStyle=none;endArrow=none;strokeWidth=6;strokeColor=#82b366;html=1;fillColor=#d5e8d4;gradientColor=#97d077;" parent="1" source="1515" target="1355" edge="1">
          <mxGeometry x="181" y="226.5" width="100" height="100" as="geometry">
            <mxPoint x="181" y="326.5" as="sourcePoint" />
            <mxPoint x="281" y="226.5" as="targetPoint" />
          </mxGeometry>
        </mxCell>
        <mxCell id="1366" value="" style="edgeStyle=none;endArrow=none;strokeWidth=6;strokeColor=#6c8ebf;html=1;fillColor=#dae8fc;gradientColor=#7ea6e0;" parent="1" source="1515" target="1356" edge="1">
          <mxGeometry x="181" y="226.5" width="100" height="100" as="geometry">
            <mxPoint x="181" y="326.5" as="sourcePoint" />
            <mxPoint x="281" y="226.5" as="targetPoint" />
          </mxGeometry>
        </mxCell>
        <mxCell id="1398" value="Geometry Dash&amp;nbsp;&lt;div&gt;&lt;span style=&quot;background-color: initial;&quot;&gt;Full Version&lt;/span&gt;&lt;/div&gt;" style="rounded=1;fillColor=#fff2cc;strokeColor=#d6b656;strokeWidth=3;shadow=0;html=1;gradientColor=#ffd966;" parent="1" vertex="1">
          <mxGeometry x="1238.5" y="401.5" width="120" height="40" as="geometry" />
        </mxCell>
        <mxCell id="1410" value="" style="edgeStyle=none;endArrow=none;strokeWidth=3;strokeColor=#d6b656;html=1;fillColor=#fff2cc;gradientColor=#ffd966;" parent="1" source="1351" target="1398" edge="1">
          <mxGeometry x="3.5" y="21.5" width="100" height="100" as="geometry">
            <mxPoint x="3.5" y="121.5" as="sourcePoint" />
            <mxPoint x="103.5" y="21.5" as="targetPoint" />
          </mxGeometry>
        </mxCell>
        <mxCell id="1458" value="&lt;p style=&quot;line-height: 0%;&quot;&gt;&lt;/p&gt;&lt;div style=&quot;text-align: justify;&quot;&gt;&lt;span style=&quot;background-color: initial;&quot;&gt;Geometry Spooky&lt;/span&gt;&lt;/div&gt;&lt;div style=&quot;text-align: justify;&quot;&gt;&lt;span style=&quot;background-color: initial;&quot;&gt;&amp;nbsp; &amp;nbsp; &amp;nbsp; &amp;nbsp; &amp;nbsp; &amp;nbsp;Dash&lt;/span&gt;&lt;/div&gt;&lt;p&gt;&lt;/p&gt;" style="rounded=1;fillColor=#e6d0de;strokeColor=#996185;strokeWidth=3;shadow=1;html=1;gradientColor=#d5739d;glass=0;sketch=1;curveFitting=1;jiggle=2;dashed=1;" parent="1" vertex="1">
          <mxGeometry x="1681" y="1386.5" width="100" height="36.5" as="geometry" />
        </mxCell>
        <mxCell id="1461" value="Xmas Dash" style="rounded=1;fillColor=#e6d0de;strokeColor=#00FF1A;strokeWidth=5;shadow=0;html=1;gradientColor=#d5739d;dashed=1;dashPattern=8 8;" parent="1" vertex="1">
          <mxGeometry x="1821" y="1346.5" width="120" height="40" as="geometry" />
        </mxCell>
        <mxCell id="1464" value="" style="edgeStyle=none;endArrow=none;strokeWidth=3;strokeColor=#996185;html=1;fillColor=#e6d0de;gradientColor=#d5739d;" parent="1" source="1354" target="1461" edge="1">
          <mxGeometry x="251" y="-103.5" width="100" height="100" as="geometry">
            <mxPoint x="251" y="-3.5" as="sourcePoint" />
            <mxPoint x="351" y="-103.5" as="targetPoint" />
          </mxGeometry>
        </mxCell>
        <mxCell id="1465" value="" style="edgeStyle=none;endArrow=none;strokeWidth=3;strokeColor=#996185;html=1;fillColor=#e6d0de;gradientColor=#d5739d;shadow=1;flowAnimation=0;jumpStyle=gap;dashed=1;dashPattern=1 1;startArrow=none;startFill=0;endFill=0;opacity=80;jumpSize=3;" parent="1" source="eUeaxhclnZeXXgq2JGaq-1542" target="1458" edge="1">
          <mxGeometry x="251" y="-103.5" width="100" height="100" as="geometry">
            <mxPoint x="1738.8477105049515" y="1291.703129171302" as="sourcePoint" />
            <mxPoint x="1711.0042857142853" y="1389" as="targetPoint" />
          </mxGeometry>
        </mxCell>
        <mxCell id="1514" style="edgeStyle=orthogonalEdgeStyle;rounded=0;html=1;exitX=0.75;exitY=0;entryX=0.75;entryY=0;startArrow=none;startFill=0;endArrow=block;endFill=1;jettySize=auto;orthogonalLoop=1;strokeColor=#12aab5;strokeWidth=6;fontSize=20;fontColor=#2F5B7C;" parent="1" edge="1">
          <mxGeometry relative="1" as="geometry">
            <mxPoint x="1611" y="371.5" as="sourcePoint" />
            <mxPoint x="1611" y="371.5" as="targetPoint" />
          </mxGeometry>
        </mxCell>
        <mxCell id="1515" value="Geometry Lite" style="ellipse;whiteSpace=wrap;html=1;shadow=0;fontFamily=Helvetica;fontSize=30;fontColor=#2F5B7C;align=center;strokeColor=#2F5B7C;strokeWidth=15;fillColor=#FFFFFF;fontStyle=1;gradientColor=none;" parent="1" vertex="1">
          <mxGeometry x="961" y="676.5" width="270" height="270" as="geometry" />
        </mxCell>
        <mxCell id="1516" value="Geometry Meltdown" style="ellipse;whiteSpace=wrap;html=1;shadow=0;fontFamily=Helvetica;fontSize=20;align=center;strokeWidth=3;fillColor=#ffcd28;strokeColor=#d79b00;gradientColor=#ffa500;" parent="1" vertex="1">
          <mxGeometry x="312" y="721.5" width="120" height="120" as="geometry" />
        </mxCell>
        <mxCell id="eUeaxhclnZeXXgq2JGaq-1543" value="" style="edgeStyle=none;endArrow=none;strokeWidth=3;strokeColor=#996185;html=1;fillColor=#e6d0de;gradientColor=#d5739d;" edge="1" parent="1" source="1354">
          <mxGeometry x="251" y="-103.5" width="100" height="100" as="geometry">
            <mxPoint x="1718.7957083768686" y="1280.3240082723842" as="sourcePoint" />
            <mxPoint x="1690.9955813953486" y="1319" as="targetPoint" />
          </mxGeometry>
        </mxCell>
        <mxCell id="eUeaxhclnZeXXgq2JGaq-1542" value="Spooky Dash" style="rounded=1;fillColor=#e6d0de;strokeColor=#FFB800;strokeWidth=5;shadow=0;html=1;gradientColor=#d5739d;" vertex="1" parent="1">
          <mxGeometry x="1634" y="1319" width="120" height="40" as="geometry" />
        </mxCell>
        <mxCell id="eUeaxhclnZeXXgq2JGaq-1544" value="Geometry Lite" style="rounded=1;fillColor=#fff2cc;strokeColor=#00D60E;strokeWidth=5;shadow=0;html=1;gradientColor=#ffd966;dashed=1;dashPattern=8 8;" vertex="1" parent="1">
          <mxGeometry x="1310" y="321.5" width="120" height="40" as="geometry" />
        </mxCell>
        <mxCell id="eUeaxhclnZeXXgq2JGaq-1545" value="" style="edgeStyle=none;endArrow=none;strokeWidth=3;strokeColor=#d6b656;html=1;fillColor=#fff2cc;gradientColor=#ffd966;entryX=0;entryY=0.5;entryDx=0;entryDy=0;" edge="1" parent="1" source="1351" target="eUeaxhclnZeXXgq2JGaq-1544">
          <mxGeometry x="3.5" y="21.5" width="100" height="100" as="geometry">
            <mxPoint x="1249" y="377" as="sourcePoint" />
            <mxPoint x="1287" y="412" as="targetPoint" />
          </mxGeometry>
        </mxCell>
        <mxCell id="eUeaxhclnZeXXgq2JGaq-1546" value="Geometry Lite" style="rounded=1;fillColor=#fff2cc;strokeColor=#00D60E;strokeWidth=5;shadow=0;html=1;gradientColor=#ffd966;dashed=1;dashPattern=8 8;" vertex="1" parent="1">
          <mxGeometry x="1300" y="246.5" width="120" height="40" as="geometry" />
        </mxCell>
        <mxCell id="eUeaxhclnZeXXgq2JGaq-1547" value="" style="edgeStyle=none;endArrow=none;strokeWidth=3;strokeColor=#d6b656;html=1;fillColor=#fff2cc;gradientColor=#ffd966;entryX=0;entryY=0.5;entryDx=0;entryDy=0;exitX=1.005;exitY=0.453;exitDx=0;exitDy=0;exitPerimeter=0;" edge="1" parent="1" target="eUeaxhclnZeXXgq2JGaq-1546" source="1351">
          <mxGeometry x="3.5" y="21.5" width="100" height="100" as="geometry">
            <mxPoint x="1238.5" y="253" as="sourcePoint" />
            <mxPoint x="1262.5" y="337" as="targetPoint" />
          </mxGeometry>
        </mxCell>
        <mxCell id="eUeaxhclnZeXXgq2JGaq-1548" value="Geometry Dash&amp;nbsp;&lt;div&gt;Old Version&lt;/div&gt;" style="rounded=1;fillColor=#fff2cc;strokeColor=#d6b656;strokeWidth=3;shadow=0;html=1;gradientColor=#ffd966;" vertex="1" parent="1">
          <mxGeometry x="1253.5" y="186.5" width="120" height="40" as="geometry" />
        </mxCell>
        <mxCell id="eUeaxhclnZeXXgq2JGaq-1549" value="" style="edgeStyle=none;endArrow=none;strokeWidth=3;strokeColor=#d6b656;html=1;fillColor=#fff2cc;gradientColor=#ffd966;exitX=0.943;exitY=0.232;exitDx=0;exitDy=0;exitPerimeter=0;entryX=0.5;entryY=1;entryDx=0;entryDy=0;" edge="1" parent="1" target="eUeaxhclnZeXXgq2JGaq-1548" source="1351">
          <mxGeometry x="3.5" y="21.5" width="100" height="100" as="geometry">
            <mxPoint x="1254" y="152" as="sourcePoint" />
            <mxPoint x="118.5" y="-193.5" as="targetPoint" />
          </mxGeometry>
        </mxCell>
        <mxCell id="eUeaxhclnZeXXgq2JGaq-1550" value="Geometry Lite" style="rounded=1;fillColor=#fff2cc;strokeColor=#00D60E;strokeWidth=5;shadow=0;html=1;gradientColor=#ffd966;dashed=1;dashPattern=8 8;" vertex="1" parent="1">
          <mxGeometry x="1178.5" y="130" width="120" height="40" as="geometry" />
        </mxCell>
        <mxCell id="eUeaxhclnZeXXgq2JGaq-1551" value="" style="edgeStyle=none;endArrow=none;strokeWidth=3;strokeColor=#d6b656;html=1;fillColor=#fff2cc;gradientColor=#ffd966;entryX=0.5;entryY=1;entryDx=0;entryDy=0;exitX=0.683;exitY=0.036;exitDx=0;exitDy=0;exitPerimeter=0;" edge="1" parent="1" target="eUeaxhclnZeXXgq2JGaq-1550" source="1351">
          <mxGeometry x="3.5" y="21.5" width="100" height="100" as="geometry">
            <mxPoint x="1170" y="200" as="sourcePoint" />
            <mxPoint x="1152.5" y="224" as="targetPoint" />
          </mxGeometry>
        </mxCell>
        <mxCell id="eUeaxhclnZeXXgq2JGaq-1554" value="Geometry SubZero" style="rounded=1;fillColor=#dae8fc;strokeColor=#11BF34;strokeWidth=5;shadow=0;html=1;gradientColor=#7ea6e0;dashed=1;dashPattern=8 8;" vertex="1" parent="1">
          <mxGeometry x="558.5" y="1319" width="120" height="40" as="geometry" />
        </mxCell>
        <mxCell id="eUeaxhclnZeXXgq2JGaq-1555" value="" style="edgeStyle=none;endArrow=none;strokeWidth=3;strokeColor=#996185;html=1;fillColor=#e6d0de;gradientColor=#d5739d;" edge="1" parent="1" target="eUeaxhclnZeXXgq2JGaq-1554" source="1356">
          <mxGeometry x="251" y="-103.5" width="100" height="100" as="geometry">
            <mxPoint x="643.5" y="1284.75" as="sourcePoint" />
            <mxPoint x="-814.5" y="-96.75" as="targetPoint" />
          </mxGeometry>
        </mxCell>
        <mxCell id="eUeaxhclnZeXXgq2JGaq-1557" value="" style="edgeStyle=none;endArrow=none;strokeWidth=3;strokeColor=#996185;html=1;fillColor=#e6d0de;gradientColor=#d5739d;entryX=0.5;entryY=0;entryDx=0;entryDy=0;" edge="1" parent="1" target="eUeaxhclnZeXXgq2JGaq-1558" source="1354">
          <mxGeometry x="251" y="-103.5" width="100" height="100" as="geometry">
            <mxPoint x="1861" y="1183" as="sourcePoint" />
            <mxPoint x="1873" y="1271.5" as="targetPoint" />
          </mxGeometry>
        </mxCell>
        <mxCell id="eUeaxhclnZeXXgq2JGaq-1558" value="Egg Dash" style="rounded=1;fillColor=#e6d0de;strokeColor=#FFB800;strokeWidth=5;shadow=0;html=1;gradientColor=#d5739d;" vertex="1" parent="1">
          <mxGeometry x="1850" y="1269" width="120" height="40" as="geometry" />
        </mxCell>
      </root>
    </mxGraphModel>
  </diagram>
</mxfile>
